<svg width="22" height="22" viewBox="0 0 22 22" fill="none" xmlns="http://www.w3.org/2000/svg">
<path d="M17.325 3.3H15.125V2.2C15.125 1.74453 14.7554 1.375 14.3 1.375C13.8445 1.375 13.475 1.74453 13.475 2.2V3.3H8.52495V2.2C8.52495 1.74453 8.15542 1.375 7.69995 1.375C7.24449 1.375 6.87495 1.74453 6.87495 2.2V3.3H4.67495C3.31016 3.3 2.19995 4.41075 2.19995 5.775V17.325C2.19995 18.6893 3.31016 19.8 4.67495 19.8H17.325C18.6897 19.8 19.8 18.6893 19.8 17.325V5.775C19.8 4.41075 18.6897 3.3 17.325 3.3ZM4.67495 4.95H6.87495V5.5C6.87495 5.95547 7.24449 6.325 7.69995 6.325C8.15542 6.325 8.52495 5.95547 8.52495 5.5V4.95H13.475V5.5C13.475 5.95547 13.8445 6.325 14.3 6.325C14.7554 6.325 15.125 5.95547 15.125 5.5V4.95H17.325C17.7799 4.95 18.15 5.3206 18.15 5.775V7.7H3.84995V5.775C3.84995 5.3206 4.22002 4.95 4.67495 4.95ZM17.325 18.15H4.67495C4.22002 18.15 3.84995 17.7794 3.84995 17.325V9.35H18.15V17.325C18.15 17.7794 17.7799 18.15 17.325 18.15Z" fill="#292929"/>
<path d="M7.7 12.1C7.7 11.4925 7.20751 11 6.6 11C5.99249 11 5.5 11.4925 5.5 12.1C5.5 12.7075 5.99249 13.2 6.6 13.2C7.20751 13.2 7.7 12.7075 7.7 12.1Z" fill="#292929"/>
<path d="M12.0999 12.1C12.0999 11.4925 11.6074 11 10.9999 11C10.3924 11 9.8999 11.4925 9.8999 12.1C9.8999 12.7075 10.3924 13.2 10.9999 13.2C11.6074 13.2 12.0999 12.7075 12.0999 12.1Z" fill="#292929"/>
<path d="M16.5 12.1C16.5 11.4925 16.0076 11 15.4 11C14.7925 11 14.3 11.4925 14.3 12.1C14.3 12.7075 14.7925 13.2 15.4 13.2C16.0076 13.2 16.5 12.7075 16.5 12.1Z" fill="#292929"/>
<path d="M7.7 15.4C7.7 14.7925 7.20751 14.3 6.6 14.3C5.99249 14.3 5.5 14.7925 5.5 15.4C5.5 16.0076 5.99249 16.5 6.6 16.5C7.20751 16.5 7.7 16.0076 7.7 15.4Z" fill="#292929"/>
<path d="M12.0999 15.4C12.0999 14.7925 11.6074 14.3 10.9999 14.3C10.3924 14.3 9.8999 14.7925 9.8999 15.4C9.8999 16.0076 10.3924 16.5 10.9999 16.5C11.6074 16.5 12.0999 16.0076 12.0999 15.4Z" fill="#292929"/>
<path d="M16.5 15.4C16.5 14.7925 16.0076 14.3 15.4 14.3C14.7925 14.3 14.3 14.7925 14.3 15.4C14.3 16.0076 14.7925 16.5 15.4 16.5C16.0076 16.5 16.5 16.0076 16.5 15.4Z" fill="#292929"/>
</svg>
