<svg width="26" height="26" viewBox="0 0 26 26" fill="none" xmlns="http://www.w3.org/2000/svg">
<path d="M11.6986 24.3472C11.2314 24.3472 10.7668 24.2196 10.3504 23.9663C9.56709 23.4909 9.09991 22.66 9.09991 21.744V13.6374C9.09991 13.3956 9.01104 13.1645 8.84982 12.9855L3.41622 6.94887C2.7167 6.18144 2.54024 5.10742 2.963 4.15083C3.38448 3.19424 4.29601 2.6001 5.3421 2.6001H20.6577C21.7038 2.6001 22.6153 3.19424 23.0368 4.15083C23.4596 5.10742 23.2831 6.18144 22.5785 6.95332L17.15 12.9855C16.9888 13.1645 16.8999 13.3956 16.8999 13.6374V20.1964C16.8999 21.2933 16.2956 22.288 15.3232 22.7926L12.8984 24.0514C12.5188 24.2488 12.1074 24.3472 11.6986 24.3472ZM5.3421 4.5501C4.95871 4.5501 4.79874 4.82115 4.74669 4.93794C4.69464 5.05473 4.60323 5.35625 4.86095 5.63936L10.2996 11.6804C10.7833 12.2181 11.0499 12.9131 11.0499 13.6374V21.744C11.0499 22.0741 11.2683 22.2423 11.3622 22.2994C11.4562 22.3572 11.7075 22.4714 11.9995 22.321L14.4243 21.0616C14.7493 20.8934 14.9499 20.5621 14.9499 20.1964V13.6374C14.9499 12.9131 15.2165 12.2181 15.7002 11.6804L21.1338 5.6438C21.3966 5.35625 21.3052 5.05474 21.2531 4.93794C21.2011 4.82113 21.0411 4.5501 20.6577 4.5501H5.3421Z" fill="#292929"/>
</svg>
