<svg width="20" height="20" viewBox="0 0 20 20" fill="none" xmlns="http://www.w3.org/2000/svg">
<path d="M10 9.99023C8.62109 9.99023 7.5 8.86914 7.5 7.49023C7.5 6.11132 8.62109 4.99023 10 4.99023C11.3789 4.99023 12.5 6.11132 12.5 7.49023C12.5 8.86914 11.3789 9.99023 10 9.99023ZM10 6.49023C9.44824 6.49023 9 6.93847 9 7.49023C9 8.04199 9.44824 8.49023 10 8.49023C10.5518 8.49023 11 8.04199 11 7.49023C11 6.93847 10.5518 6.49023 10 6.49023Z" fill="#292929"/>
<path d="M10.0049 18.583H10.001C9.44434 18.582 8.92969 18.335 8.58789 17.9043C6.68848 15.5137 3.5 10.9805 3.5 7.49023C3.5 4.04394 6.41602 1.24023 10 1.24023C13.584 1.24023 16.5 4.04394 16.5 7.49023C16.5 11.04 13.3145 15.542 11.416 17.9111C11.0742 18.3379 10.5596 18.583 10.0049 18.583ZM10 2.74022C7.24317 2.74022 5.00001 4.87108 5.00001 7.49022C5.00001 10.6377 8.33106 15.1699 9.76271 16.9717C9.84279 17.0723 9.95802 17.083 10.0039 17.083C10.0498 17.083 10.166 17.0723 10.2442 16.9736C11.6739 15.1904 15 10.6973 15 7.49022C15 4.87108 12.7569 2.74022 10 2.74022Z" fill="#292929"/>
</svg>
